<svg xmlns="http://www.w3.org/2000/svg" width="96.352" height="25.872" viewBox="0 0 96.352 25.872">
    <defs>
        <style>
            .cls-1{fill:#31b057}.cls-2{fill:#388bf2}.cls-3{fill:#2e61d3}.cls-4{fill:#39d39e}.cls-5{fill:#fff}
        </style>
    </defs>
    <g id="Group_10" data-name="Group 10">
        <g id="Group_8" data-name="Group 8" transform="translate(21.084 5.291)">
            <path id="Path_5" d="M379.937 596.166h-6.345a2.715 2.715 0 0 0 2.616 2.081 3.45 3.45 0 0 0 2.163-.783 1.237 1.237 0 0 1 1.751.021 1.219 1.219 0 0 1-.021 1.751 5.738 5.738 0 0 1-3.894 1.463 5.171 5.171 0 0 1 0-10.342 4.5 4.5 0 0 1 .906.082 4.987 4.987 0 0 1 3.337 2.369 3.983 3.983 0 0 1 .659 2.019 1.745 1.745 0 0 1-.165.6 1.12 1.12 0 0 1-1.007.739zm-5.995-2.081h4.367a2.292 2.292 0 0 0-2.1-1.236 2.672 2.672 0 0 0-2.267 1.236z" class="cls-1" data-name="Path 5" transform="translate(-358.661 -584.938)"/>
            <path id="Path_6" d="M428.595 581.9a1.246 1.246 0 0 1-2.493 0v-4.51a2.122 2.122 0 1 0-4.244 0v4.51a1.244 1.244 0 0 1-1.256 1.236 1.258 1.258 0 0 1-1.257-1.236v-13.142a1.275 1.275 0 0 1 1.255-1.258 1.262 1.262 0 0 1 1.256 1.257v4.532a4.617 4.617 0 0 1 6.737 4.1z" class="cls-1" data-name="Path 6" transform="translate(-395.762 -567.377)"/>
            <path id="Path_7" d="M475.475 591.442v7.89a1.178 1.178 0 0 1-1.195 1.174 1.094 1.094 0 0 1-1.092-1.174v-.247a4.7 4.7 0 0 1-3.152 1.216 4.975 4.975 0 1 1 0-9.951 4.893 4.893 0 0 1 3.152 1.2v-.1a1.094 1.094 0 0 1 1.092-1.174 1.179 1.179 0 0 1 1.195 1.166zm-2.864 3.894a2.586 2.586 0 1 0-2.575 2.554 2.589 2.589 0 0 0 2.576-2.555z" class="cls-1" data-name="Path 7" transform="translate(-430.88 -584.87)"/>
            <path id="Path_8" d="M520.9 581.367a1.227 1.227 0 0 1-1.236 1.236 4.668 4.668 0 0 1-.536-.021 2.975 2.975 0 0 1-1.813-.927 3.036 3.036 0 0 1-.7-1.854v-5.191h-.886a1.236 1.236 0 1 1 0-2.472h.886V568.2a1.236 1.236 0 1 1 2.472 0v3.935h.68a1.236 1.236 0 0 1 0 2.472h-.68v4.9c.041.165 0 .412.144.536.1.1.288.083.433.083a1.24 1.24 0 0 1 1.236 1.241z" class="cls-1" data-name="Path 8" transform="translate(-468.869 -566.967)"/>
            <path id="Path_9" d="M558.974 582.458a1.18 1.18 0 0 1-.927.412 1.281 1.281 0 0 1-.824-.309l-5.871-5.521a.293.293 0 0 1-.082.061v4.553a1.226 1.226 0 0 1-2.452 0V568.47a1.226 1.226 0 1 1 2.452 0v5.109l5.4-5.645a1.213 1.213 0 0 1 1.73-.041 1.238 1.238 0 0 1 .041 1.751l-5.4 5.624 5.83 5.459a1.216 1.216 0 0 1 .103 1.731z" class="cls-2" data-name="Path 9" transform="translate(-495.242 -567.172)"/>
            <path id="Path_10" d="M605.1 600.7a5.053 5.053 0 0 1-4.883-5.171v-3.935a1.2 1.2 0 0 1 1.154-1.236 1.308 1.308 0 0 1 1.3 1.236v3.935a2.664 2.664 0 0 0 2.431 2.678 2.54 2.54 0 0 0 2.451-2.678v-3.77a1.349 1.349 0 0 1 1.277-1.236 1.2 1.2 0 0 1 1.17 1.234v3.77a5.056 5.056 0 0 1-4.9 5.173z" class="cls-2" data-name="Path 10" transform="translate(-534.734 -584.938)"/>
            <path id="Path_11" d="M320.56 581.329a1.056 1.056 0 0 0 1.056 1.056h3.019a4.075 4.075 0 0 1 4.075 4.075 4.075 4.075 0 0 1-4.075 4.075h-4.981a1.509 1.509 0 0 1-1.509-1.509 1.509 1.509 0 0 1 1.509-1.509h4.981a1.057 1.057 0 0 0 1.056-1.057 1.056 1.056 0 0 0-1.056-1.056h-3.019a4.075 4.075 0 0 1-4.075-4.075 4.075 4.075 0 0 1 4.075-4.075h4.684a1.509 1.509 0 0 1 1.509 1.509 1.509 1.509 0 0 1-1.509 1.509h-4.679a1.057 1.057 0 0 0-1.061 1.057z" class="cls-1" data-name="Path 11" transform="translate(-317.542 -574.871)"/>
        </g>
        <g id="Group_9" data-name="Group 9">
            <path id="Path_12" d="M413.679 312.74a2.553 2.553 0 1 0-1.37 1.022 6.674 6.674 0 0 1 .312 2.008 6.588 6.588 0 0 1-1.943 4.689l-4.346 4.346a.487.487 0 0 1-.688 0l-4.344-4.345a6.588 6.588 0 0 1-1.942-4.689 6.679 6.679 0 0 1 .306-1.988 2.563 2.563 0 1 0-1.393-.968 8.323 8.323 0 0 0-.548 2.957 8.213 8.213 0 0 0 2.421 5.846l4.346 4.346a2.121 2.121 0 0 0 3 0l4.346-4.346a8.212 8.212 0 0 0 2.422-5.846 8.312 8.312 0 0 0-.579-3.032zm-13.34-2.341a.921.921 0 1 1-.92.921.922.922 0 0 1 .919-.92zm10.3.921a.921.921 0 1 1 .921.921.922.922 0 0 1-.925-.921z" class="cls-2" data-name="Path 12" transform="translate(-397.721 -308.764)"/>
            <path id="Path_13" d="M436.482 351.036a1.182 1.182 0 0 0 1.182 1.182h1.4v1.4a1.182 1.182 0 0 0 2.364 0v-1.4h1.4a1.182 1.182 0 0 0 0-2.364h-1.4v-1.4a1.182 1.182 0 0 0-2.364 0v1.4h-1.4a1.182 1.182 0 0 0-1.182 1.182z" class="cls-1" data-name="Path 13" transform="translate(-431.919 -342.741)"/>
            <path id="Path_14" d="M477.633 505.6a.779.779 0 0 1-.653-.717.749.749 0 0 1 .653.717z" class="cls-3" data-name="Path 14" transform="translate(-467.649 -481.793)"/>
            <path id="Path_15" d="M456.49 448.872a2.109 2.109 0 0 1-.7 1.569l-1.4 1.264-.518.469a.78.78 0 0 1-.224.141 1.18 1.18 0 0 0-.992-1.089.743.743 0 0 1 .166-.215l.514-.465 1.4-1.268a.548.548 0 1 0-.736-.813l-1.162 1.05a2.115 2.115 0 1 1-2.836-3.14l1.8-1.628a.784.784 0 0 1 1.05 1.163l-1.8 1.628a.548.548 0 1 0 .735.813l1.163-1.05a2.116 2.116 0 0 1 3.534 1.57z" class="cls-2" data-name="Path 15" transform="translate(-443.237 -428.561)"/>
            <path id="Path_19" d="M471.272 505.544a.2.2 0 0 1 0 .027.752.752 0 1 1-.751-.751.645.645 0 0 1 .1.007.749.749 0 0 1 .651.717z" class="cls-3" data-name="Path 19" transform="translate(-461.288 -481.74)"/>
            <path id="Path_20" d="M462.79 495.233a2.04 2.04 0 1 0 .119.686 2.013 2.013 0 0 0-.119-.686zm-1.92 1.868a1.181 1.181 0 1 1 0-2.363 1.091 1.091 0 0 1 .186.015 1.18 1.18 0 0 1 .992 1.089v.076a1.182 1.182 0 0 1-1.178 1.182z" class="cls-2" data-name="Path 20" transform="translate(-451.636 -472.088)"/>
            <path id="Path_21" d="M471.273 505.571a.752.752 0 1 1-.751-.751.645.645 0 0 1 .1.007.749.749 0 0 1 .653.717.2.2 0 0 1-.002.027z" class="cls-5" data-name="Path 21" transform="translate(-461.288 -481.74)"/>
            <path id="Path_22" d="M471.273 505.571a.752.752 0 1 1-.751-.751.645.645 0 0 1 .1.007.749.749 0 0 1 .653.717.2.2 0 0 1-.002.027z" class="cls-2" data-name="Path 22" transform="translate(-461.288 -481.74)"/>
        </g>
    </g>
</svg>
